<svg data-name="Group 504" xmlns="http://www.w3.org/2000/svg" viewBox="0 0 66.356 56.45"><defs><clipPath id="a"><path data-name="Rectangle 344" fill="none" stroke="#fff" stroke-width="2" d="M0 0h66.356v56.451H0z"/></clipPath></defs><g data-name="Group 503" clip-path="url(#a)" fill="none" stroke="#fff" stroke-linecap="round" stroke-linejoin="round" stroke-width="2"><path data-name="Path 43424" d="M4.349 6.402v-4.34a1.26 1.26 0 0 1 1.26-1.26h39.155a1.26 1.26 0 0 1 1.26 1.26v12.882"/><path data-name="Line 1" d="M4.349 37.463v-4.961"/><path data-name="Path 43425" d="M4.349 48.034v4.032a1.26 1.26 0 0 0 1.26 1.263h26.364"/><path data-name="Line 2" d="M46.024 26.365v5.094"/><path data-name="Line 3" d="M4.349 21.932v-4.961"/><path data-name="Path 43426" d="M46.175 26.365h-7.267a4.508 4.508 0 0 1 0-9.015h7.267a1.8 1.8 0 0 1 1.8 1.8v5.413a1.8 1.8 0 0 1-1.8 1.802"/><path data-name="Rectangle 340" d="M13.681 6.1h23.01v7.617h-23.01z"/><rect data-name="Rectangle 341" width="7.818" height="5.222" rx="2.611" transform="translate(.802 9.076)"/><rect data-name="Rectangle 342" width="7.818" height="5.221" rx="2.611" transform="translate(.802 24.608)"/><path data-name="Rectangle 343" d="M3.413 40.139h2.6A2.61 2.61 0 0 1 8.62 42.75h0a2.61 2.61 0 0 1-2.611 2.61H3.412a2.61 2.61 0 0 1-2.61-2.61h0a2.61 2.61 0 0 1 2.611-2.611"/><path data-name="Path 43427" d="M49.225 29.829c0 1.991 3.655 3.605 8.164 3.605s8.164-1.614 8.164-3.605-3.655-3.605-8.164-3.605-8.164 1.614-8.164 3.605"/><path data-name="Path 43428" d="M65.553 35.544c-1.108 1.5-4.3 2.579-8.057 2.579a19 19 0 0 1-2.55-.173"/><path data-name="Path 43429" d="M65.553 40.06c-1.108 1.5-4.3 2.579-8.057 2.579"/><path data-name="Path 43430" d="M57.804 47.325c3.627-.057 6.673-1.12 7.749-2.577"/><path data-name="Path 43431" d="M56.448 52.172q.463.023.94.024c4.509 0 8.165-1.613 8.165-3.6V29.83"/><path data-name="Line 4" d="M49.225 29.83v2.908"/><path data-name="Path 43432" d="M41.477 49.385a3.38 3.38 0 0 0 2.693 1.229 2.668 2.668 0 1 0 .276-5.274h0a2.63 2.63 0 0 1-2.64-2.389 2.68 2.68 0 0 1 2.893-2.4 3.08 3.08 0 0 1 2.424 1.088"/><path data-name="Line 5" d="M44.416 50.726v1.869"/><path data-name="Line 6" d="M44.416 38.44v1.948"/><circle data-name="Ellipse 2" cx="10.131" cy="10.131" r="10.131" transform="translate(34.286 35.387)"/><path data-name="Line 7" d="M18.746 23.558h12.88"/><path data-name="Line 8" d="M18.746 34.334h12.88"/><path data-name="Line 9" d="M16.455 28.946h17.463"/><path data-name="Path 43433" d="M41.477 49.385a3.38 3.38 0 0 0 2.693 1.229 2.668 2.668 0 1 0 .276-5.274h0a2.63 2.63 0 0 1-2.64-2.389 2.68 2.68 0 0 1 2.893-2.4 3.08 3.08 0 0 1 2.424 1.088"/><path data-name="Line 10" d="M44.416 50.726v1.869"/><path data-name="Line 11" d="M44.416 38.44v1.948"/></g></svg>