<svg xmlns="http://www.w3.org/2000/svg" viewBox="0 0 12.3 13.2" xmlns:v="https://vecta.io/nano"><style><![CDATA[.B{isolation:isolate}.E{mix-blend-mode:screen}.J{fill:#b0b0b0}.K{fill:#d8d8d7}.L{fill:gray}.M{fill:#404040}]]></style><g class="B"><path d="M0 0h12.3v13.2H0z" class="K"/><g class="E" opacity=".3"><g class="K"><path d="M8.8 6.4c-.3 0 0 .4-.4.3-.1-.3-.2-.7-.4-1 0 0 .1-.3.3-.2 0 .2.2.3.3.3v.3c.2 0 .3 0 .2.2h0zM2 9.6v-.4h.2c.3 0 .4.2.7.2v.4h0c-.3 0-.4-.2-.7-.2h0zm9.5-9h-.2c-.2.2.3.2 0 .4-.1.2-.3 0-.4 0 0-.2-.3-.4-.2-.7.2-.2.2.2.4 0 .2 0 .3-.2.4-.2v.3h0z"/></g><path d="M11.3 3.1h-.8v-.5c.4 0 .7 0 1 .3l-.2.2z" fill="#fff"/><g class="K"><path d="M8.8 8.2v.4h.3c.1 0 0 .3 0 .4-.1.2-.3 0-.4 0 0-.4-.3-.7-.2-1h.3 0zM9.1 6h.4c.1 0 0-.2.1-.3.1-.2.3 0 .5 0v.6h-.6s-.4.2-.4 0h0v-.2zm.1 5.6c-.1 0 0-.4-.2-.5-.1 0-.3-.2-.2-.4h.4c0 .2.2.4.4.5-.1 0-.3.3-.4.4z"/></g><path d="M3.3,6h-.5c0-.3-.3-.6,0-1,.3,0,.2.6.6.5v.4h0Z" class="J"/><g class="K"><path d="M1.7 9c-.2.2-.2.5-.2.8h-.3v-.3-.3H.8c0-.2.2-.2.2-.3 0 .2.3.2.4.2l.2.2h0zM1 11.8v-.6h.4c.2.3 0 .4 0 .6h-.3z"/></g><path d="M7.5 1.6c0-.2-.2 0-.3-.2-.2-.2 0-.4 0-.6q.2 0 .2.2v.3s.2 0 .3.2v.3h-.3v-.2z" class="J"/><path d="M1.3 4.7s0-.2.2-.3h.4v.4h-.7v-.2h0z" class="K"/><path d="M7 8l.2-.2c.3 0 .4.3.6.4l-.2.2c-.2 0-.3-.3-.6-.5h0z" class="J"/><g class="K"><path d="M3.5 9.4V9h.4v.4h-.5 0zm1.8-3.2c0 .3-.2 0-.4.2 0-.2-.2-.4-.4-.4l.2-.2s0 .2.3.2.2.2.3.3h0zm-3.8-.7h.2c.2 0 0 .3 0 .4h-.5v-.5h.3z"/></g><path d="M9.3 5.1v.4c-.1.2-.3 0-.4 0s0-.3 0-.4c.2-.2.3 0 .5 0h-.1z" class="J"/><g class="K"><path d="M8.8 8.2h-.3v-.6h.3c.1.2 0 .4 0 .6zm-2.6 3c0 .2 0 .5-.2.7h-.3c.2-.2.2-.4.2-.7h.3zm-3-9.3c.2 0 0 .2.2.3v.3c-.2 0-.2.3-.4.2v-.2c0-.3.4 0 .3-.3v-.3h0z"/></g><path d="M7.3 12.5c-.3 0-.5.4-.8 0v-.2h.3.5z" class="J"/><g class="K"><path d="M1.5 5.5h-.2c-.3 0-.2-.4-.3-.5 0 0 .2-.2.3-.2h.2v.7zm3 1H5c0 .4-.4.2-.5.4 0 0-.2 0-.2-.3s0-.2.2-.2h0z"/></g><g class="J"><path d="M9.1 6v.2c-.1 0-.2 0-.3.2 0-.3-.3 0-.3-.2 0 0 .2 0 .2-.3.2 0 .4-.2.5.2h0zm-4.6.5s0 .2-.2.2c0 0 .2 0 .2.2-.2 0-.3 0-.5.2v-.3h.2c0-.3.2-.2.3-.2z"/></g><path d="M6 5.4v.2h-.6v-.2c.2-.2.3-.2.6 0h0z" class="L"/><path d="M1.7 9s-.2 0-.2-.2q.2-.2.4-.2v.3h-.3 0z" class="J"/><path d="M4,6.9v.6h-.3c0-.2,0-.4.3-.6Z" class="K"/><path d="M1.7 7.2c-.2 0-.4 0-.5-.3 0 0 0-.2.2-.2h0s0 .3.2.3h0v.2z" class="J"/><path d="M.7,2.6q0,.2,0,.3c-.2,0-.4-.2-.4-.5.2,0,.3.2.5.2Z" class="L"/><g class="J"><path d="M10.2 1.7v-.2h.5c0 .4-.3.2-.5.2zM11.5.6V.3h.2c.2 0 .1.3 0 .5h-.3.1zm-9 9.9c.2 0 .2 0 0 .3H2v-.3h.3 0zm3.1 1.1c0 .3-.3.2-.5.2v-.2h.6 0zm-4.6.2h.3c.2 0 0 .2.2.3H1v-.3zm9.7-4.3c.1 0 .2.2.2.2s-.2.2-.2.3l-.2-.2s.1-.2.2-.3zm-4.6.7c0 .2.5 0 .4.5 0-.2-.3-.2-.4-.2v-.3z"/><g><path d="M9.7 9.9l-.2-.2s.1-.2.2-.2.2 0 .3.2l-.2.2h-.1zm-.8-.2l.2.2s-.2 0-.3.2c0 0-.1 0-.2-.2 0 0 .1-.2.2-.3h.1z"/></g></g><path d="M3.5 10s.2 0 .3-.2l.3.3s-.2 0-.3.2h-.2 0l-.1-.2z" class="K"/><path d="M11 10.6l-.2.2s-.1-.2-.2-.3c0 0 .1 0 .2-.2.1 0 .2 0 .3.2H11z" class="M"/><g class="J"><path d="M.6 11.5l-.2-.2s.2 0 .3-.2l.2.2s0 .2-.2.3H.6zm.7.7h.4v.3c-.2 0-.4 0-.4-.3z"/></g><path d="M11.5 12.2v.4l-.3-.3s.1 0 .3-.1z" class="L"/><g class="J"><path d="M7.5.9s0-.2-.2-.2c0-.2.2-.3.3-.3l.2.2c0 .2-.2.3-.3.3zM2.3.9L2.1.7s.2 0 .3-.2l.2.2s0 .2-.2.3h-.1z"/></g><path d="M1.7 3.2s-.2 0-.3.2l-.3-.3s.2 0 .3-.2h.2 0l.1.2z" class="L"/><g class="J"><path d="M.4.2l.2.2S.4.6.4.7L.2.5S.2.3.4.2zm.5 2.2l-.2-.2s.2 0 .3-.2l.2.2s0 .2-.2.3H.9z"/><g><path d="M4.7 2.2L4.5 2s0-.2.2-.2.2 0 .3.2l-.2.2h-.1zM3.5 6l.2-.2s.2.2.3.2l-.2.2s-.2 0-.3-.2zm-.9-3.9l-.2-.2s.2-.2.2-.3l.2.2s0 .2-.2.3z"/></g></g><g class="K"><path d="M10.5 6.2c.2 0 .3 0 .5.3-.1 0-.3 0-.4.2h-.2v-.3h0zM2.3 7c0-.2 0-.3.3-.5 0 0 0 .3.2.4v.2h-.4z"/></g><path d="M10.2 7.2L10 7s.2 0 .3-.2c0 0 .1 0 .2.2 0 0-.1.2-.2.3h-.1z" class="J"/><path d="M11.3 3.1s0-.2.2-.2.2.2 0 .3h-.3.1z" class="L"/><g class="J"><path d="M7.7 2.7c.2 0 .3 0 .2.3h-.2v-.3zm-4.4-.1v-.3c.2 0 .4 0 .3.3h-.3zm-.9-.1h-.6.3.3z"/></g><path d="M7.5,1.6h.3c0,.2,0,.3-.2.5-.2-.2,0-.3,0-.5h-.1Z" class="K"/><g class="J"><path d="M5.2 1c0-.2 0-.3.3-.2V1h-.3zm5.1 10.9v.5s-.1-.2-.2-.3c0 0 .2 0 .3-.2h-.1zm-4.6-.1H6v.2c-.2 0-.3 0-.3-.2z"/></g><path d="M2 11.8c0-.2 0-.3.3-.2v.2H2z" class="L"/><path d="M8.6,11.5c0,.2-.2.2-.3,0,0,0,0-.3.1-.3q.2,0,.2.2h0Z" class="J"/><path d="M6.2 11.2h-.3c0-.2 0-.4.3-.3v.3z" class="K"/><path d="M3.5,10.9h.3v.2c-.2,0-.4,0-.3-.2Z" class="L"/><path d="M10 10.4v.2h-.3c-.1 0 0 0 0-.2h.3z" class="J"/><g class="K"><path d="M7.2 10.4l-.3.3s0-.2-.2-.3h.5zm-4.7.1h-.3s-.2 0-.2-.2l.2-.2c.2 0 .3.2.3.3h0zm1-.5v.4-.3l.2-.2h0z"/></g><path d="M10.6 9.6c.3 0 .4 0 .3.2h-.3v-.2z" class="L"/><path d="M6.6 9.5v.3h-.2c0-.2 0-.3.2-.3z" class="J"/><g class="L"><path d="M4.9 9.5h.2v.3h-.2v-.3zm-3.7-.1q.2 0 .2.2h-.2c-.2 0-.2 0-.2-.2h.2z"/></g><g class="J"><path d="M6.6 8.7c.3 0 .4 0 .3.2h-.3v-.2zM7 7.6c0 .2 0 .3-.3.2v-.2H7zm-5.2.2v-.2h.3v.2h-.3z"/></g><path d="M3.2 7.2s.2.2.3.2c0 .2-.3 0-.4 0 0-.2 0-.2.2-.4h0z" class="M"/><path d="M2.3 7h.3c0 .2 0 .4-.3.3V7z" class="J"/><path d="M5.7 6.5c0-.2.2-.2.3 0v.3q-.2 0-.2-.2h0z" class="L"/><g class="J"><path d="M10.5 6.2v.3h-.3v-.3h.3zm.6-.6v-.2h.3c.1 0 0 0 0 .2h-.3z"/></g><path d="M8.3,5.5c-.1,0-.2,0-.3.2v-.2q0-.2.2-.2h.3q0,.2-.1.2h0Z" class="L"/><g class="K"><path d="M7.8 5.4c-.2 0-.2 0-.3-.3.2 0 .4-.2.5 0l-.2.2zm-5.4-.6c.2 0 .3 0 .4-.2l.2.2h-.6z"/></g><path d="M1 4.9c-.2 0-.2-.2 0-.3h.3q0 .2-.2.2H1z" class="J"/><path d="M.6 4.7H.4v-.3h.2v.3z" class="L"/><path d="M2.7 3.6l.2-.2V4s0-.3-.2-.4z" class="M"/><path d="M1.7 3.2v-.4s0 .3.2.3c0 0 0 .2-.2.3v-.2z" class="L"/><g class="J"><path d="M2.2 10.2s0 .2-.2.2h0s0-.2.3-.3h0zM10 9.1v-.3h.4c-.1 0-.2.2-.3.3h0z"/></g><path d="M3.3 8.9s0-.3-.2-.4c.2 0 .4 0 .2.4z" class="M"/><g class="J"><path d="M1.7 7.2v-.4.4h-.2 0zM11.8 7h-.3c0-.2.1-.2.2-.3.2 0 0 .2.1.3zm-4.7-.3h.4c0 .2-.2.2-.3.3v-.3h0zm-1.4-.2s0 .2.2.2c0 .2-.2.2-.3 0v-.3h0zm1 .2l.2-.2v.2h-.3.1zm1-.4s-.2 0-.3-.2c.3 0 .4 0 .3.2zm-2.4-.1c-.2 0-.3-.2-.3-.3h.3v.3zm2.5-.8s0-.2.2-.2.2 0 .2.2c-.1 0-.2 0-.2.2-.1 0-.2 0-.2-.2zM1 4.9s.2 0 .2-.2h.2v.2c0 .2-.2 0-.3.2v-.2h0z"/></g><path d="M8.5 4.2l.2-.2v.2h-.3.1z" class="L"/><path d="M3.6 3.1h.3v.4l-.3-.3h0z" class="M"/><path d="M3.2,1.9v.3h-.3c0-.2.2-.3.3-.3Z" class="K"/><path d="M6.2 2.1s0-.2-.2-.4c.2 0 .4 0 .2.4z" class="M"/><g class="J"><path d="M6.1.8s0 .2-.2.3c0-.3 0-.4.2-.3zM7.8.6s-.2 0-.2-.2h0s.2 0 .3.2h-.1zM3.7.4h0V0v.4z"/></g><path d="M7.3,12.5v-.2h.3c0,.2,0,.3-.3.3h0Z" class="L"/><g class="J"><path d="M9.4 11.9v.4h-.3c0-.2.2-.2.2-.4h.1zm-2.2.4h-.3v-.2l.2-.2c.2 0 0 .2.2.3h0z"/></g><path d="M7 12s0 .2-.2.2h0s0-.2.3-.3h0z" class="M"/><path d="M8.6 11.5s0-.2-.2-.2c0-.2.2-.2.3 0 0 0 0 .3-.1.3h0z" class="J"/></g></g></svg>