<?xml version="1.0" encoding="UTF-8"?>
<svg id="Layer_2" data-name="Layer 2" xmlns="http://www.w3.org/2000/svg" xmlns:xlink="http://www.w3.org/1999/xlink" viewBox="0 0 396.89 386.04">
  <defs>
    <style>
      .cls-1, .cls-2 {
        fill: none;
      }

      .cls-2 {
        stroke: #fff;
        stroke-linecap: round;
        stroke-linejoin: round;
        stroke-width: 9.75px;
      }

      .cls-3 {
        clip-path: url(#clippath);
      }
    </style>
    <clipPath id="clippath">
      <rect class="cls-1" width="396.89" height="386.04"/>
    </clipPath>
  </defs>
  <g id="Layer_1-2" data-name="Layer 1">
    <g class="cls-3">
      <g>
        <path class="cls-2" d="M262.74,195.63c0,42.13-34.14,76.29-76.27,76.29s-76.29-34.14-76.29-76.27,34.14-76.28,76.27-76.29c42.13,0,76.28,34.15,76.3,76.27h-.01Z"/>
        <path class="cls-2" d="M207.63,73.89c24.72,4.29,47.55,16.02,65.43,33.62"/>
        <path class="cls-2" d="M42.08,239.45c-4.27-14.11-6.45-28.76-6.46-43.5"/>
        <path class="cls-2" d="M79.91,302.39c-6.17-6.15-11.79-12.82-16.81-19.94"/>
        <path class="cls-2" d="M63.1,195.95v-.32c0-59.86,42.98-111.08,101.93-121.5M278.95,342.13c-27.67,17.52-59.76,26.79-92.51,26.74h-.11c-45.86.05-89.86-18.18-122.25-50.65M308.16,72.42c.3.26.6.56.88.84,63.6,63.67,67.84,165.44,9.75,234.18"/>
        <path class="cls-2" d="M64.07,318.22l67.31-67.31"/>
        <path class="cls-2" d="M36.26,195.95h73.98"/>
        <path class="cls-2" d="M163.32,226.07c5.2,6.31,13.02,9.88,21.2,9.68,13.86,0,25.09-9.31,25.09-20.8,0-13.11-12.35-18.57-23.27-20.74-9.75-1.95-20.42-7.32-20.42-18.8,0-10.43,10.2-18.89,22.78-18.89,7.34-.18,14.36,2.98,19.1,8.58"/>
        <path class="cls-2" d="M186.47,250.23v-14.53"/>
        <path class="cls-2" d="M186.46,141.06v15.34"/>
        <path class="cls-2" d="M239.62,140.96l68.54-68.55"/>
        <path class="cls-2" d="M273.89,284.57l49.75,78.34h30.34"/>
        <path class="cls-2" d="M392.19,362.91c0,10.19-8.26,18.44-18.44,18.44s-18.44-8.26-18.44-18.44,8.26-18.44,18.44-18.44,18.44,8.26,18.44,18.44Z"/>
        <path class="cls-2" d="M41.57,360.57c0,10.19-8.26,18.44-18.44,18.44s-18.44-8.26-18.44-18.44,8.26-18.44,18.44-18.44,18.44,8.26,18.44,18.44Z"/>
        <path class="cls-2" d="M266.64,23.14c0,10.19-8.26,18.44-18.44,18.44s-18.44-8.26-18.44-18.44,8.26-18.44,18.44-18.44,18.44,8.26,18.44,18.44Z"/>
        <path class="cls-2" d="M186.35,95.14v-56.96l43.41-11.81"/>
        <path class="cls-2" d="M64.1,250.23l-40.97,40.97v49.38"/>
      </g>
    </g>
  </g>
</svg>