<?xml version="1.0" encoding="UTF-8"?>
<svg id="Layer_2" data-name="Layer 2" xmlns="http://www.w3.org/2000/svg" xmlns:xlink="http://www.w3.org/1999/xlink" viewBox="0 0 380.06 323.33">
  <defs>
    <style>
      .cls-1, .cls-2 {
        fill: none;
      }

      .cls-2 {
        stroke: #fff;
        stroke-linecap: round;
        stroke-linejoin: round;
        stroke-width: 9.77px;
      }

      .cls-3 {
        clip-path: url(#clippath);
      }
    </style>
    <clipPath id="clippath">
      <rect class="cls-1" width="380.06" height="323.33"/>
    </clipPath>
  </defs>
  <g id="Layer_1-2" data-name="Layer 1">
    <g class="cls-3">
      <g>
        <path class="cls-2" d="M24.91,36.67V11.82c0-3.98,3.22-7.21,7.21-7.22h224.28c3.98,0,7.21,3.22,7.22,7.21v73.79"/>
        <path class="cls-2" d="M24.91,214.58v-28.41"/>
        <path class="cls-2" d="M24.91,275.12v23.09c0,3.99,3.22,7.23,7.21,7.23h150.99"/>
        <path class="cls-2" d="M263.61,151.02v29.17"/>
        <path class="cls-2" d="M24.91,125.62v-28.41"/>
        <path class="cls-2" d="M264.48,151.02h-41.62c-14.26-.2-25.66-11.91-25.46-26.17.19-13.98,11.48-25.27,25.46-25.46h41.62c5.7,0,10.32,4.62,10.32,10.32v31c0,5.7-4.62,10.32-10.32,10.32h0Z"/>
        <path class="cls-2" d="M78.36,34.95h131.79v43.63H78.36v-43.63Z"/>
        <rect class="cls-2" x="4.59" y="51.99" width="44.78" height="29.91" rx="14.95" ry="14.95"/>
        <path class="cls-2" d="M19.54,140.95h14.87c8.26,0,14.95,6.69,14.95,14.95s-6.69,14.95-14.95,14.95h-14.87c-8.26,0-14.95-6.69-14.95-14.95s6.69-14.95,14.95-14.95Z"/>
        <path class="cls-2" d="M19.54,229.91h14.85c8.26,0,14.95,6.69,14.95,14.95s-6.69,14.95-14.95,14.95h-14.85c-8.26,0-14.95-6.69-14.95-14.95s6.69-14.95,14.95-14.96h0Z"/>
        <path class="cls-2" d="M281.94,170.85c0,11.4,20.93,20.65,46.76,20.65s46.76-9.24,46.76-20.65-20.93-20.65-46.76-20.65-46.76,9.24-46.76,20.65Z"/>
        <path class="cls-2" d="M375.47,203.59c-6.35,8.58-24.61,14.77-46.15,14.77-4.89.01-9.77-.32-14.61-.98"/>
        <path class="cls-2" d="M375.47,229.45c-6.35,8.58-24.61,14.77-46.15,14.77"/>
        <path class="cls-2" d="M331.08,271.07c20.77-.33,38.22-6.42,44.39-14.76"/>
        <path class="cls-2" d="M323.32,298.83c1.77.09,3.56.13,5.37.14,25.82,0,46.77-9.24,46.77-20.64v-107.47"/>
        <path class="cls-2" d="M281.94,170.86v16.66"/>
        <path class="cls-2" d="M237.56,282.87c3.79,4.59,9.47,7.19,15.43,7.04,10.08,0,18.25-6.78,18.25-15.15,0-7.92-7.33-14.17-16.67-15.07-7.84.08-14.43-5.87-15.15-13.68.85-8.33,8.22-14.44,16.57-13.74,5.33-.13,10.44,2.16,13.88,6.23"/>
        <path class="cls-2" d="M254.4,290.55v10.71"/>
        <path class="cls-2" d="M254.4,220.18v11.16"/>
        <circle class="cls-2" cx="254.4" cy="260.71" r="58.03"/>
        <path class="cls-2" d="M107.37,134.93h73.77"/>
        <path class="cls-2" d="M107.37,196.66h73.77"/>
        <path class="cls-2" d="M94.25,165.8h100.01"/>
        <path class="cls-2" d="M237.56,282.87c3.79,4.59,9.47,7.19,15.43,7.04,10.08,0,18.25-6.78,18.25-15.15,0-7.92-7.33-14.17-16.67-15.07-7.84.08-14.43-5.87-15.15-13.68.85-8.33,8.22-14.44,16.57-13.74,5.33-.13,10.44,2.16,13.88,6.23"/>
        <path class="cls-2" d="M254.4,290.55v10.71"/>
        <path class="cls-2" d="M254.4,220.18v11.16"/>
      </g>
    </g>
  </g>
</svg>