<svg id="Group_94" data-name="Group 94" xmlns="http://www.w3.org/2000/svg"
  xmlns:xlink="http://www.w3.org/1999/xlink" width="37.737" height="34.975"
  viewBox="0 0 37.737 34.975">
  <defs>
    <clipPath id="clip-path">
      <rect id="Rectangle_144" data-name="Rectangle 144" width="37.737" height="34.975" fill="#fff" />
    </clipPath>
  </defs>
  <g id="Group_84" data-name="Group 84" clip-path="url(#clip-path)">
    <path id="Path_247" data-name="Path 247"
      d="M36.738,28.415a1,1,0,1,0,1,1,.986.986,0,0,0-1-1m0,1.847a.848.848,0,1,1,.848-.848.839.839,0,0,1-.848.848m.218-.75a.3.3,0,0,0,.226-.3c0-.19-.129-.3-.345-.3h-.486v1h.173v-.38h.22l.268.38h.213l-.282-.4Zm-.432-.118v-.326h.285c.124,0,.195.057.195.157s-.073.169-.195.169ZM32.394,0H2.582A2.582,2.582,0,0,0,0,2.582V32.393a2.582,2.582,0,0,0,2.582,2.582H32.394a2.582,2.582,0,0,0,2.582-2.582V2.582A2.582,2.582,0,0,0,32.394,0M10.424,29.8H5.166v-16.7h5.258ZM7.8,10.777A2.976,2.976,0,0,1,4.764,7.759,2.978,2.978,0,0,1,7.8,4.74a2.978,2.978,0,0,1,3.032,3.019A2.977,2.977,0,0,1,7.8,10.777M29.809,29.808H24.551V20.685c0-2.692-1.144-3.522-2.62-3.522-1.56,0-3.09,1.174-3.09,3.589v9.056H13.583V13.1H18.64v2.314h.067a5.736,5.736,0,0,1,5-2.784c2.934,0,6.1,1.74,6.1,6.843Z"
      fill="#fff" />
  </g>
</svg>