<?xml version="1.0" encoding="UTF-8"?>
<svg id="Layer_2" data-name="Layer 2" xmlns="http://www.w3.org/2000/svg" xmlns:xlink="http://www.w3.org/1999/xlink" viewBox="0 0 374.59 429.05">
  <defs>
    <style>
      .cls-1, .cls-2 {
        fill: none;
      }

      .cls-2 {
        stroke: #fff;
        stroke-linecap: round;
        stroke-linejoin: round;
        stroke-width: 9.72px;
      }

      .cls-3 {
        clip-path: url(#clippath);
      }
    </style>
    <clipPath id="clippath">
      <rect class="cls-1" x="0" width="374.59" height="429.05"/>
    </clipPath>
  </defs>
  <g id="Layer_1-2" data-name="Layer 1">
    <g class="cls-3">
      <g>
        <path class="cls-2" d="M65.75,233.5l.87-76.1h22.01l-41.75-64.68L5.08,157.4h22.01l-.87,76.1"/>
        <path class="cls-2" d="M346.64,145.86l.87-76.11h22.01L327.74,5.08l-41.8,64.67h22.01l-.87,76.11"/>
        <path class="cls-2" d="M241.36,154.64c30.94,16.31,50.32,48.4,50.33,83.38,0,2.22-.08,4.45-.23,6.68"/>
        <path class="cls-2" d="M124.06,244.69c-.16-2.23-.23-4.45-.23-6.66,0-34.98,19.37-67.09,50.32-83.4"/>
        <path class="cls-2" d="M179.73,131.05h56.1c6.67,0,12.08,5.41,12.08,12.08s-5.41,12.07-12.07,12.07h-56.1c-6.67,0-12.07-5.4-12.08-12.07,0-6.67,5.41-12.08,12.08-12.08h0Z"/>
        <path class="cls-2" d="M231.68,128.95l1.94-2.76c8.31-11.95,13.19-25.94,14.13-40.46.26-5.09-3.66-9.43-8.75-9.69-1.27-.06-2.54.13-3.73.58-3.1,1.42-6.4,2.37-9.78,2.8-4.1-3.41-7.78-7.3-10.95-11.59-3.27-3.92-9.09-4.44-13.01-1.18-.67.56-1.26,1.21-1.74,1.93l-8.75,12.99-9.84-1.6c-5.03-.82-9.78,2.6-10.6,7.63-.34,2.09.05,4.23,1.1,6.07,5.95,10.82,8.96,23.01,8.75,35.36l-.03,2"/>
        <path class="cls-2" d="M220.27,104.88l5.21-25.45"/>
        <path class="cls-2" d="M191.03,81.6l4.82,19.64"/>
        <path class="cls-2" d="M186.43,251.67c4.79,5.81,11.99,9.1,19.52,8.91,12.76,0,23.1-8.57,23.1-19.15,0-12.07-11.37-17.1-21.43-19.1-8.99-1.78-18.8-6.73-18.8-17.31,0-9.6,9.39-17.39,20.98-17.39,6.75-.16,13.21,2.74,17.57,7.89"/>
        <path class="cls-2" d="M207.75,261.39v13.55"/>
        <path class="cls-2" d="M207.75,172.31v14.13"/>
        <path class="cls-2" d="M260.06,287.76l48.96-30.33c.32-.2.64-.39.97-.57,17.87-10.02,36.66,11.56,24.99,28.39-1.89,2.73-4.27,5.07-7.02,6.93l-88.88,65c-7.54,5.52-16.76,8.26-26.09,7.75l-53.08-2.87c-14.16-.77-27.82,5.36-36.67,16.45"/>
        <path class="cls-2" d="M157.91,320.79h66.94c8.89,0,16.1-7.21,16.1-16.1s-7.21-16.1-16.1-16.1h-60.43c-4.13,0-8.04-1.83-10.69-4.99l-2.39-2.85c-15.36-18.3-42.65-20.67-60.94-5.31-1.76,1.48-3.4,3.09-4.9,4.83l-33.54,39.9"/>
        <path class="cls-2" d="M102.88,423.98l13.83-18.26c4.08-5.39,3.09-13.05-2.23-17.22l-74.58-58.45c-5.39-4.21-13.17-3.26-17.38,2.12-.04.05-.08.1-.11.15l-13.61,17.93"/>
      </g>
    </g>
  </g>
</svg>