<svg id="nav-svg" xmlns="http://www.w3.org/2000/svg" viewBox="0 0 315 64.6" fill="#fff"><path d="M86.7 15.5c4.4 0 8.7 1.5 10.8 2.8l1.1-5.7C96 11.1 91.9 9.8 86 9.8c-10.7 0-23.1 7.5-23.1 22.3S75.2 54.4 86 54.4s10-1.3 12.7-2.7l-1.3-5s-.5.3-.6.3c-2.6 1.1-6 1.8-10 1.8-8.6 0-17.3-5.5-17.3-16.6s8.9-16.7 17.3-16.7m33.2.5c-9.8 0-19.6 7.3-19.6 19.2s9.7 19.2 19.6 19.2 19.6-7.2 19.6-19.2S129.9 16 120 16m0 32.8c-6.5 0-13.2-5-13.2-13.7s6.7-13.6 13.2-13.6 13.2 4.9 13.2 13.6-6.8 13.7-13.2 13.7M250 31l.1 10.1h-.1c-2.6-3.2-6.5-7.5-9-10.2l-18.4-20.2h-4.5v42.9h6.5V32.1l-.1-10.8h.1l9.9 11.2s8.1 9.3 16.1 17.7c1.8 1.9 4.2 3.4 5.9 3.4h0V10.7H250V31zm-84.9-1.6c2.5-1.1 4-4.4 4-7.5 0-7.5-6.3-11.2-12-11.2h-12v42.9H159c6.7 0 14.1-4.2 14.1-13s-4-10-7.9-11.1m-13.7-13.3h4.4c3.5 0 6.5 1.7 6.5 5.7s-3 5.6-6.5 5.6h-4.4V16.2zm6.2 31.9h-6.1V33h6.1c4.5 0 8.7 2.4 8.7 7.5s-4.2 7.5-8.7 7.5m121.1-16.1l17.8-21.2c-2.2-.2-7.1-.3-10.6 3.6C281.8 19 272.1 31 272.1 31V10.7h-6.5v42.9h6.5V49v-.6-14.9l13.6 16.1c3 3.5 6.6 4.6 10.7 4.6h1.1l-18.8-22.3zm-86.1-21.8l-18.3 43.5h.4c2.9 0 6.1-.7 7.3-3.2 1-1.9 3.3-7.9 3.3-7.9h16.7s2.1 5.4 3 7.1c1.1 2 2.7 4 8.1 4h.1L195 10.1h-2.4zm7.2 27.2h-12.2l6.1-15.7h.1l6.1 15.7M8.5 8.7v32.9s.6 12.6 12.9 12.6h25.8L18.5 18.7l-10-10zm291.9 7.5c-1.7 0-2.9-1.2-2.9-2.8s1.3-2.8 2.9-2.8 2.8 1.1 2.8 2.8-1.3 2.8-2.8 2.8zm0-5c-1.3 0-2.2.9-2.2 2.3s.9 2.3 2.2 2.3 2.2-.9 2.2-2.3-1-2.3-2.2-2.3zm-.5 3.8h-.5v-3.1h1.2c.8 0 1.2.3 1.2.9s-.4.8-.8.8l.9 1.3h-.6l-.8-1.3h-.5v1.3zm.6-1.7c.4 0 .7 0 .7-.5s-.4-.4-.7-.4h-.6v.9h.6z"/><path d="M8.5 8.7h32.9S54 9.3 54 21.6v25.8L18.5 18.7l-10-10z" opacity=".7"/></svg>